<?xml version="1.0" encoding="UTF-8"?><svg id="Calque_35" xmlns="http://www.w3.org/2000/svg" viewBox="0 0 800 800"><defs><style>.cls-1{fill:#fff;}.cls-2{fill:none;stroke:#e2be66;stroke-miterlimit:10;}</style></defs><polygon class="cls-2" points="185.85 389.02 185.85 636.34 400.04 760 614.23 636.34 614.23 389.02 400.04 265.36 185.85 389.02"/><polygon class="cls-1" points="191.84 389.04 400.04 269.61 608.24 389.04 400.04 510.5 191.84 389.04"/><path d="M400.04,273.07l202.21,115.99-202.21,117.97-202.21-117.97,202.21-115.99M400.04,266.15l-214.19,122.86,214.19,124.96,214.19-124.96-214.19-122.86h0Z"/><path d="M517.92,445.08c.03-31.44-33.94-54.02-44.23-61.48-25.64-18.61-51.97-22.77-64.87-23.93l-24.11.91c-9.42.72-26.99,3.34-45.6,14.39-18,10.69-27.74,23.79-33.75,32.05-9.05,12.45-11.18,20.24-11.89,23.25,0,0-2.16,10.11-.59,21.17,0,.04-107.03-62.4-107.03-62.4v247.32s214.19,123.66,214.19,123.66l214.19-123.66v-247.32s-96.31,56.06-96.31,56.06Z"/><g id="hexagone"><path id="J" class="cls-1" d="M463.42,394.88c-1.3,60.36,1.3,120.73,0,181.09-.09,2.41-.6,5.69-2.46,8.96-5.91,10.39-19.72,10.71-20.74,10.72,12.98,11.47,25.95,22.95,38.93,34.42,11.07-1.01,20.47-1.56,27.7,8.26,12.66,17.2.5,39.66-20.68,38.2-14-.97-22.38-13.18-21.14-26.73.26-2.82,3.03-5.44,1.1-7.76l-51.11-41.79-4.64-.27v154.03s-10.32,5.95-10.32,5.95l-16.96-9.7v-160.34s-78.91,36.84-78.91,36.84c7.34,20.81-10.36,41.86-32.13,34.44-19.22-6.55-22.16-33.3-5.84-45.13,9.43-6.84,15.87-3.95,26.5-4.03l90.39-46.93,41.75-.1c7.81-.01,6.12-.48,6.46-6.01v-164.13h32.12ZM289.09,628.29c-11.94-11.7-28.5,7.93-16.58,18.24,11.26,9.74,27.71-7.34,16.58-18.24ZM486.49,641.73c-14.89,2.16-11.13,26.16,4.94,22.51,12.88-2.93,9.9-24.66-4.94-22.51Z"/><path class="cls-1" d="M325.67,429.93c2.37,1.69,24.61-14.16,38.69-24.96,21.4-16.42,19.59-29,71.83-18.59,4.01.8-42.5-51.66-96.03-6.45-17.81,15.05-26.05,41.77-14.49,50.01Z"/><path class="cls-1" d="M435.88,264.99c23.34-57.45,64.52-107.93,116.34-142.51,6.16-4.11,14.3-9.28,22.57-12.8l-2.07-5.62c-62.59,19.67-119.31,68.79-157.32,135.76,6.4-59.65,40.43-112.81,91.06-140.93,30.23-16.79,68.37-25.31,113.36-25.31,1.85,0,3.72.01,5.6.04-1.6,50.31-21.84,97.71-57.18,133.76-35.62,36.34-82.51,56.72-132.36,57.6Z"/><path d="M619.81,76.58c.82,0,1.65,0,2.48,0-1.1,23.36-6.31,46.12-15.51,67.73-9.71,22.81-23.4,43.32-40.69,60.97-33.97,34.66-78.33,54.56-125.67,56.56,23.4-55.13,63.41-103.49,113.45-136.87,6.05-4.04,14.04-9.12,22.08-12.53l-4.15-11.25c-59.14,18.58-113.07,63.11-151.2,124.02,4.01-21.02,11.59-41.29,22.43-59.74,15.94-27.12,38.37-49.24,64.86-63.96,29.78-16.54,67.43-24.93,111.9-24.93M619.81,70.58c-39.38,0-80.28,6.5-114.82,25.68-56.49,31.38-91.31,92.66-93.57,157.19,33.8-65.38,90.58-124.03,162.19-146.53-8.14,3.46-16.23,8.5-23.06,13.06-53.29,35.56-95.82,88.22-119.1,148.03.36,0,.7,0,1.06,0,108.19,0,194.15-90.3,195.98-197.33-2.88-.07-5.77-.1-8.68-.1h0Z"/><path class="cls-1" d="M354.35,230.56c-39.02-1.5-78.04-14.5-110.41-36.85-35.86-24.77-60.09-58.23-70.06-96.77-4.06-15.68-4.93-30.64-5.84-46.48-.14-2.44-.28-4.9-.44-7.38,32.54.91,61.86,5.44,87.21,13.46,31.85,10.08,57.54,25.77,76.35,46.62,24.47,27.13,39.47,64.04,42.84,104.93-25.32-39.84-62.24-79.85-96.49-104.14-2.86-2.03-5.6-4.01-8.27-5.94-17.07-12.35-31.81-23.03-54.47-28.2l-12.81-2.93,45.31,36.17.06.04c41.88,30.2,77.87,73.07,107.02,127.47Z"/><path d="M170.79,46.18c30.95,1.11,58.88,5.55,83.11,13.22,31.33,9.92,56.57,25.32,75.02,45.77,13.61,15.08,24.2,32.99,31.47,53.21,4.31,11.97,7.4,24.58,9.25,37.69-25.07-36.6-58.85-72.19-90.41-94.57-2.84-2.02-5.59-4-8.25-5.93-17.34-12.55-32.31-23.38-55.56-28.7l-25.61-5.85,20.53,16.39,34.98,27.93.11.09.12.09c40.3,29.05,75.11,69.99,103.59,121.77-36.68-2.4-73.07-15.03-103.51-36.05-16.96-11.72-31.43-25.6-43.02-41.27-12.18-16.47-20.87-34.57-25.85-53.78-3.99-15.4-4.84-30.21-5.75-45.9-.08-1.35-.16-2.72-.24-4.1M164.39,40c1.34,19.92,1.54,38.21,6.58,57.69,21.31,82.34,105.91,134.94,188.42,136-26.87-51.4-62.48-98.54-110.32-133.04l-34.98-27.93c25.5,5.83,40.43,18.6,61.67,33.67,38.59,27.37,77.97,72.59,101.87,113.42-1.18-43.45-14.98-86.21-44.25-118.66-41.75-46.28-109.04-59.92-168.99-61.15h0Z"/><polygon class="cls-1" points="419.79 390.52 340.35 513.54 405.93 513.54 405.93 547.43 300.16 547.43 300.16 516.19 382.24 390.52 419.79 390.52"/><path d="M400.04,277.49c29.91-75.13,93.24-148.23,172.94-170.33-85.24,49.83-151.88,143.75-152.9,245.99-.3,19.78,15.78,24.54,34.38,32.63,14.22,6.19,21.16,7.2,34.96,15.6,3.16,1.92,22.16,18.43,19.03,22.11-1.94,2.28-2.77-2.25-3.31-2.53-25.53-12.36-85.96-13.28-105.1-28.57-24.64,22.44-40.32,33.73-69.38,38.72,11.65-27.02,34.75-26.66,46.91-53.45,9.08-20.01,4.24-58.83,2.52-75.6-19.13-102.6-78.37-152.78-173.81-234.31,90.73,17.59,184.99,151.52,193.77,209.75Z"/></g></svg>